<svg id="my-svg" width="100%" xmlns="http://www.w3.org/2000/svg" xmlns:xlink="http://www.w3.org/1999/xlink" class="classDiagram" style="max-width: 1347.89px; background-color: white;" viewBox="4 4 1347.890625 280" role="graphics-document document" aria-roledescription="class"><style>#my-svg{font-family:"trebuchet ms",verdana,arial,sans-serif;font-size:16px;fill:#333;}@keyframes edge-animation-frame{from{stroke-dashoffset:0;}}@keyframes dash{to{stroke-dashoffset:0;}}#my-svg .edge-animation-slow{stroke-dasharray:9,5!important;stroke-dashoffset:900;animation:dash 50s linear infinite;stroke-linecap:round;}#my-svg .edge-animation-fast{stroke-dasharray:9,5!important;stroke-dashoffset:900;animation:dash 20s linear infinite;stroke-linecap:round;}#my-svg .error-icon{fill:#552222;}#my-svg .error-text{fill:#552222;stroke:#552222;}#my-svg .edge-thickness-normal{stroke-width:1px;}#my-svg .edge-thickness-thick{stroke-width:3.5px;}#my-svg .edge-pattern-solid{stroke-dasharray:0;}#my-svg .edge-thickness-invisible{stroke-width:0;fill:none;}#my-svg .edge-pattern-dashed{stroke-dasharray:3;}#my-svg .edge-pattern-dotted{stroke-dasharray:2;}#my-svg .marker{fill:#333333;stroke:#333333;}#my-svg .marker.cross{stroke:#333333;}#my-svg svg{font-family:"trebuchet ms",verdana,arial,sans-serif;font-size:16px;}#my-svg p{margin:0;}#my-svg g.classGroup text{fill:#9370DB;stroke:none;font-family:"trebuchet ms",verdana,arial,sans-serif;font-size:10px;}#my-svg g.classGroup text .title{font-weight:bolder;}#my-svg .nodeLabel,#my-svg .edgeLabel{color:#131300;}#my-svg .edgeLabel .label rect{fill:#ECECFF;}#my-svg .label text{fill:#131300;}#my-svg .labelBkg{background:#ECECFF;}#my-svg .edgeLabel .label span{background:#ECECFF;}#my-svg .classTitle{font-weight:bolder;}#my-svg .node rect,#my-svg .node circle,#my-svg .node ellipse,#my-svg .node polygon,#my-svg .node path{fill:#ECECFF;stroke:#9370DB;stroke-width:1px;}#my-svg .divider{stroke:#9370DB;stroke-width:1;}#my-svg g.clickable{cursor:pointer;}#my-svg g.classGroup rect{fill:#ECECFF;stroke:#9370DB;}#my-svg g.classGroup line{stroke:#9370DB;stroke-width:1;}#my-svg .classLabel .box{stroke:none;stroke-width:0;fill:#ECECFF;opacity:0.5;}#my-svg .classLabel .label{fill:#9370DB;font-size:10px;}#my-svg .relation{stroke:#333333;stroke-width:1;fill:none;}#my-svg .dashed-line{stroke-dasharray:3;}#my-svg .dotted-line{stroke-dasharray:1 2;}#my-svg #compositionStart,#my-svg .composition{fill:#333333!important;stroke:#333333!important;stroke-width:1;}#my-svg #compositionEnd,#my-svg .composition{fill:#333333!important;stroke:#333333!important;stroke-width:1;}#my-svg #dependencyStart,#my-svg .dependency{fill:#333333!important;stroke:#333333!important;stroke-width:1;}#my-svg #dependencyStart,#my-svg .dependency{fill:#333333!important;stroke:#333333!important;stroke-width:1;}#my-svg #extensionStart,#my-svg .extension{fill:transparent!important;stroke:#333333!important;stroke-width:1;}#my-svg #extensionEnd,#my-svg .extension{fill:transparent!important;stroke:#333333!important;stroke-width:1;}#my-svg #aggregationStart,#my-svg .aggregation{fill:transparent!important;stroke:#333333!important;stroke-width:1;}#my-svg #aggregationEnd,#my-svg .aggregation{fill:transparent!important;stroke:#333333!important;stroke-width:1;}#my-svg #lollipopStart,#my-svg .lollipop{fill:#ECECFF!important;stroke:#333333!important;stroke-width:1;}#my-svg #lollipopEnd,#my-svg .lollipop{fill:#ECECFF!important;stroke:#333333!important;stroke-width:1;}#my-svg .edgeTerminals{font-size:11px;line-height:initial;}#my-svg .classTitleText{text-anchor:middle;font-size:18px;fill:#333;}#my-svg .label-icon{display:inline-block;height:1em;overflow:visible;vertical-align:-0.125em;}#my-svg .node .label-icon path{fill:currentColor;stroke:revert;stroke-width:revert;}#my-svg :root{--mermaid-font-family:"trebuchet ms",verdana,arial,sans-serif;}</style><g><defs><marker id="my-svg_class-aggregationStart" class="marker aggregation class" refX="18" refY="7" markerWidth="190" markerHeight="240" orient="auto"><path d="M 18,7 L9,13 L1,7 L9,1 Z"/></marker></defs><defs><marker id="my-svg_class-aggregationEnd" class="marker aggregation class" refX="1" refY="7" markerWidth="20" markerHeight="28" orient="auto"><path d="M 18,7 L9,13 L1,7 L9,1 Z"/></marker></defs><defs><marker id="my-svg_class-extensionStart" class="marker extension class" refX="18" refY="7" markerWidth="190" markerHeight="240" orient="auto"><path d="M 1,7 L18,13 V 1 Z"/></marker></defs><defs><marker id="my-svg_class-extensionEnd" class="marker extension class" refX="1" refY="7" markerWidth="20" markerHeight="28" orient="auto"><path d="M 1,1 V 13 L18,7 Z"/></marker></defs><defs><marker id="my-svg_class-compositionStart" class="marker composition class" refX="18" refY="7" markerWidth="190" markerHeight="240" orient="auto"><path d="M 18,7 L9,13 L1,7 L9,1 Z"/></marker></defs><defs><marker id="my-svg_class-compositionEnd" class="marker composition class" refX="1" refY="7" markerWidth="20" markerHeight="28" orient="auto"><path d="M 18,7 L9,13 L1,7 L9,1 Z"/></marker></defs><defs><marker id="my-svg_class-dependencyStart" class="marker dependency class" refX="6" refY="7" markerWidth="190" markerHeight="240" orient="auto"><path d="M 5,7 L9,13 L1,7 L9,1 Z"/></marker></defs><defs><marker id="my-svg_class-dependencyEnd" class="marker dependency class" refX="13" refY="7" markerWidth="20" markerHeight="28" orient="auto"><path d="M 18,7 L9,13 L14,7 L9,1 Z"/></marker></defs><defs><marker id="my-svg_class-lollipopStart" class="marker lollipop class" refX="13" refY="7" markerWidth="190" markerHeight="240" orient="auto"><circle stroke="black" fill="transparent" cx="7" cy="7" r="6"/></marker></defs><defs><marker id="my-svg_class-lollipopEnd" class="marker lollipop class" refX="1" refY="7" markerWidth="190" markerHeight="240" orient="auto"><circle stroke="black" fill="transparent" cx="7" cy="7" r="6"/></marker></defs></g><g class="subgraphs"/><g class="nodes"><g class="node default" id="classId-Session-0" transform="translate(181.4921875, 144)"><g class="basic label-container"><path d="M-169.4921875 -60 L169.4921875 -60 L169.4921875 60 L-169.4921875 60" stroke="none" stroke-width="0" fill="#ECECFF" style=""/><path d="M-169.4921875 -60 C-38.736726210845035 -60, 92.01873507830993 -60, 169.4921875 -60 M-169.4921875 -60 C-76.76023668889901 -60, 15.971714122201973 -60, 169.4921875 -60 M169.4921875 -60 C169.4921875 -18.064182089362156, 169.4921875 23.87163582127569, 169.4921875 60 M169.4921875 -60 C169.4921875 -28.81255328427638, 169.4921875 2.3748934314472407, 169.4921875 60 M169.4921875 60 C50.49650690307948 60, -68.49917369384104 60, -169.4921875 60 M169.4921875 60 C51.88254348144365 60, -65.7271005371127 60, -169.4921875 60 M-169.4921875 60 C-169.4921875 17.946267515726433, -169.4921875 -24.107464968547134, -169.4921875 -60 M-169.4921875 60 C-169.4921875 26.981040483704284, -169.4921875 -6.037919032591432, -169.4921875 -60" stroke="#9370DB" stroke-width="1.3" fill="none" stroke-dasharray="0 0" style=""/></g><g class="annotation-group text" transform="translate(0, -36)"/><g class="label-group text" transform="translate(-27.21875, -36)"><g class="label" style="font-weight: bolder" transform="translate(0,-12)"><foreignObject width="54.4375" height="24"><div xmlns="http://www.w3.org/1999/xhtml" style="display: table-cell; white-space: nowrap; line-height: 1.5; max-width: 99px; text-align: center;"><span class="nodeLabel markdown-node-label" style=""><p>Session</p></span></div></foreignObject></g></g><g class="members-group text" transform="translate(-157.4921875, 12)"><g class="label" style="" transform="translate(0,-12)"><foreignObject width="287.765625" height="24"><div xmlns="http://www.w3.org/1999/xhtml" style="display: table-cell; white-space: nowrap; line-height: 1.5; max-width: 311px; text-align: center;"><span class="nodeLabel markdown-node-label" style=""><p>- currentUser: AuthenticatingUser [0..1]</p></span></div></foreignObject></g></g><g class="methods-group text" transform="translate(-157.4921875, 60)"/><g class="divider" style=""><path d="M-169.4921875 -12 C-62.92514389982894 -12, 43.64189970034212 -12, 169.4921875 -12 M-169.4921875 -12 C-58.17253605870806 -12, 53.14711538258388 -12, 169.4921875 -12" stroke="#9370DB" stroke-width="1.3" fill="none" stroke-dasharray="0 0" style=""/></g><g class="divider" style=""><path d="M-169.4921875 36 C-87.87779175866372 36, -6.2633960173274374 36, 169.4921875 36 M-169.4921875 36 C-54.18035218353948 36, 61.13148313292103 36, 169.4921875 36" stroke="#9370DB" stroke-width="1.3" fill="none" stroke-dasharray="0 0" style=""/></g></g><g class="node default" id="classId-UserRole-1" transform="translate(506.44140625, 144)"><g class="basic label-container"><path d="M-120.45703125 -96 L120.45703125 -96 L120.45703125 96 L-120.45703125 96" stroke="none" stroke-width="0" fill="#ECECFF" style=""/><path d="M-120.45703125 -96 C-49.532362188178155 -96, 21.39230687364369 -96, 120.45703125 -96 M-120.45703125 -96 C-34.55763392997254 -96, 51.34176339005492 -96, 120.45703125 -96 M120.45703125 -96 C120.45703125 -49.55315746071548, 120.45703125 -3.1063149214309647, 120.45703125 96 M120.45703125 -96 C120.45703125 -50.56879529215384, 120.45703125 -5.137590584307674, 120.45703125 96 M120.45703125 96 C71.3952440084211 96, 22.333456766842204 96, -120.45703125 96 M120.45703125 96 C29.309946082262925 96, -61.83713908547415 96, -120.45703125 96 M-120.45703125 96 C-120.45703125 43.17514081415469, -120.45703125 -9.649718371690625, -120.45703125 -96 M-120.45703125 96 C-120.45703125 24.411860759969528, -120.45703125 -47.176278480060944, -120.45703125 -96" stroke="#9370DB" stroke-width="1.3" fill="none" stroke-dasharray="0 0" style=""/></g><g class="annotation-group text" transform="translate(-53.9296875, -72)"><g class="label" style="" transform="translate(0,-12)"><foreignObject width="107.859375" height="24"><div xmlns="http://www.w3.org/1999/xhtml" style="display: table-cell; white-space: nowrap; line-height: 1.5; max-width: 146px; text-align: center;"><span class="nodeLabel markdown-node-label" style=""><p>«enumeration»</p></span></div></foreignObject></g></g><g class="label-group text" transform="translate(-33.2578125, -48)"><g class="label" style="font-weight: bolder" transform="translate(0,-12)"><foreignObject width="66.515625" height="24"><div xmlns="http://www.w3.org/1999/xhtml" style="display: table-cell; white-space: nowrap; line-height: 1.5; max-width: 110px; text-align: center;"><span class="nodeLabel markdown-node-label" style=""><p>UserRole</p></span></div></foreignObject></g></g><g class="members-group text" transform="translate(-108.45703125, 0)"><g class="label" style="" transform="translate(0,-12)"><foreignObject width="55.515625" height="24"><div xmlns="http://www.w3.org/1999/xhtml" style="display: table-cell; white-space: nowrap; line-height: 1.5; max-width: 99px; text-align: center;"><span class="nodeLabel markdown-node-label" style=""><p>Student</p></span></div></foreignObject></g><g class="label" style="" transform="translate(0,12)"><foreignObject width="79.21875" height="24"><div xmlns="http://www.w3.org/1999/xhtml" style="display: table-cell; white-space: nowrap; line-height: 1.5; max-width: 127px; text-align: center;"><span class="nodeLabel markdown-node-label" style=""><p>AdminStaff</p></span></div></foreignObject></g><g class="label" style="" transform="translate(0,36)"><foreignObject width="162.984375" height="24"><div xmlns="http://www.w3.org/1999/xhtml" style="display: table-cell; white-space: nowrap; line-height: 1.5; max-width: 196px; text-align: center;"><span class="nodeLabel markdown-node-label" style=""><p>EntertainmentProvider</p></span></div></foreignObject></g></g><g class="methods-group text" transform="translate(-108.45703125, 96)"/><g class="divider" style=""><path d="M-120.45703125 -24 C-39.86512437404603 -24, 40.726782501907934 -24, 120.45703125 -24 M-120.45703125 -24 C-62.841699270362675 -24, -5.226367290725349 -24, 120.45703125 -24" stroke="#9370DB" stroke-width="1.3" fill="none" stroke-dasharray="0 0" style=""/></g><g class="divider" style=""><path d="M-120.45703125 72 C-47.97669011563124 72, 24.503651018737514 72, 120.45703125 72 M-120.45703125 72 C-31.15966725674437 72, 58.13769673651126 72, 120.45703125 72" stroke="#9370DB" stroke-width="1.3" fill="none" stroke-dasharray="0 0" style=""/></g></g><g class="node default" id="classId-EventType-2" transform="translate(729.08984375, 144)"><g class="basic label-container"><path d="M-67.19140625 -132 L67.19140625 -132 L67.19140625 132 L-67.19140625 132" stroke="none" stroke-width="0" fill="#ECECFF" style=""/><path d="M-67.19140625 -132 C-39.01303692279097 -132, -10.834667595581934 -132, 67.19140625 -132 M-67.19140625 -132 C-33.9551709203281 -132, -0.7189355906562014 -132, 67.19140625 -132 M67.19140625 -132 C67.19140625 -70.91067956219524, 67.19140625 -9.821359124390497, 67.19140625 132 M67.19140625 -132 C67.19140625 -39.212275954913196, 67.19140625 53.57544809017361, 67.19140625 132 M67.19140625 132 C36.296059549442845 132, 5.400712848885689 132, -67.19140625 132 M67.19140625 132 C35.23560252298775 132, 3.279798795975495 132, -67.19140625 132 M-67.19140625 132 C-67.19140625 32.191712297281896, -67.19140625 -67.61657540543621, -67.19140625 -132 M-67.19140625 132 C-67.19140625 37.94793144354426, -67.19140625 -56.104137112911474, -67.19140625 -132" stroke="#9370DB" stroke-width="1.3" fill="none" stroke-dasharray="0 0" style=""/></g><g class="annotation-group text" transform="translate(-53.9296875, -108)"><g class="label" style="" transform="translate(0,-12)"><foreignObject width="107.859375" height="24"><div xmlns="http://www.w3.org/1999/xhtml" style="display: table-cell; white-space: nowrap; line-height: 1.5; max-width: 146px; text-align: center;"><span class="nodeLabel markdown-node-label" style=""><p>«enumeration»</p></span></div></foreignObject></g></g><g class="label-group text" transform="translate(-39.0859375, -84)"><g class="label" style="font-weight: bolder" transform="translate(0,-12)"><foreignObject width="78.171875" height="24"><div xmlns="http://www.w3.org/1999/xhtml" style="display: table-cell; white-space: nowrap; line-height: 1.5; max-width: 119px; text-align: center;"><span class="nodeLabel markdown-node-label" style=""><p>EventType</p></span></div></foreignObject></g></g><g class="members-group text" transform="translate(-55.19140625, -36)"><g class="label" style="" transform="translate(0,-12)"><foreignObject width="39.0625" height="24"><div xmlns="http://www.w3.org/1999/xhtml" style="display: table-cell; white-space: nowrap; line-height: 1.5; max-width: 90px; text-align: center;"><span class="nodeLabel markdown-node-label" style=""><p>Music</p></span></div></foreignObject></g><g class="label" style="" transform="translate(0,12)"><foreignObject width="56.453125" height="24"><div xmlns="http://www.w3.org/1999/xhtml" style="display: table-cell; white-space: nowrap; line-height: 1.5; max-width: 99px; text-align: center;"><span class="nodeLabel markdown-node-label" style=""><p>Theatre</p></span></div></foreignObject></g><g class="label" style="" transform="translate(0,36)"><foreignObject width="43.609375" height="24"><div xmlns="http://www.w3.org/1999/xhtml" style="display: table-cell; white-space: nowrap; line-height: 1.5; max-width: 91px; text-align: center;"><span class="nodeLabel markdown-node-label" style=""><p>Dance</p></span></div></foreignObject></g><g class="label" style="" transform="translate(0,60)"><foreignObject width="41.0625" height="24"><div xmlns="http://www.w3.org/1999/xhtml" style="display: table-cell; white-space: nowrap; line-height: 1.5; max-width: 92px; text-align: center;"><span class="nodeLabel markdown-node-label" style=""><p>Movie</p></span></div></foreignObject></g><g class="label" style="" transform="translate(0,84)"><foreignObject width="44.234375" height="24"><div xmlns="http://www.w3.org/1999/xhtml" style="display: table-cell; white-space: nowrap; line-height: 1.5; max-width: 91px; text-align: center;"><span class="nodeLabel markdown-node-label" style=""><p>Sports</p></span></div></foreignObject></g><g class="label" style="" transform="translate(0,108)"><foreignObject width="47.71875" height="24"><div xmlns="http://www.w3.org/1999/xhtml" style="display: table-cell; white-space: nowrap; line-height: 1.5; max-width: 94px; text-align: center;"><span class="nodeLabel markdown-node-label" style=""><p>Games</p></span></div></foreignObject></g></g><g class="methods-group text" transform="translate(-55.19140625, 132)"/><g class="divider" style=""><path d="M-67.19140625 -60 C-32.257240636690426 -60, 2.676924976619148 -60, 67.19140625 -60 M-67.19140625 -60 C-17.58922149747056 -60, 32.01296325505888 -60, 67.19140625 -60" stroke="#9370DB" stroke-width="1.3" fill="none" stroke-dasharray="0 0" style=""/></g><g class="divider" style=""><path d="M-67.19140625 108 C-16.37174921774389 108, 34.44790781451222 108, 67.19140625 108 M-67.19140625 108 C-22.90268464702728 108, 21.386036955945443 108, 67.19140625 108" stroke="#9370DB" stroke-width="1.3" fill="none" stroke-dasharray="0 0" style=""/></g></g><g class="node default" id="classId-ContactInfo-3" transform="translate(965.171875, 144)"><g class="basic label-container"><path d="M-133.890625 -84 L133.890625 -84 L133.890625 84 L-133.890625 84" stroke="none" stroke-width="0" fill="#ECECFF" style=""/><path d="M-133.890625 -84 C-43.12769882788544 -84, 47.63522734422912 -84, 133.890625 -84 M-133.890625 -84 C-45.853899871597164 -84, 42.18282525680567 -84, 133.890625 -84 M133.890625 -84 C133.890625 -35.0080066917232, 133.890625 13.983986616553594, 133.890625 84 M133.890625 -84 C133.890625 -41.07344403394937, 133.890625 1.8531119321012568, 133.890625 84 M133.890625 84 C30.855365229757993 84, -72.17989454048401 84, -133.890625 84 M133.890625 84 C39.27674175003382 84, -55.33714149993236 84, -133.890625 84 M-133.890625 84 C-133.890625 19.91756350874138, -133.890625 -44.16487298251724, -133.890625 -84 M-133.890625 84 C-133.890625 18.120719732028064, -133.890625 -47.75856053594387, -133.890625 -84" stroke="#9370DB" stroke-width="1.3" fill="none" stroke-dasharray="0 0" style=""/></g><g class="annotation-group text" transform="translate(0, -60)"/><g class="label-group text" transform="translate(-43.28125, -60)"><g class="label" style="font-weight: bolder" transform="translate(0,-12)"><foreignObject width="86.5625" height="24"><div xmlns="http://www.w3.org/1999/xhtml" style="display: table-cell; white-space: nowrap; line-height: 1.5; max-width: 126px; text-align: center;"><span class="nodeLabel markdown-node-label" style=""><p>ContactInfo</p></span></div></foreignObject></g></g><g class="members-group text" transform="translate(-121.890625, -12)"><g class="label" style="" transform="translate(0,-12)"><foreignObject width="102.140625" height="24"><div xmlns="http://www.w3.org/1999/xhtml" style="display: table-cell; white-space: nowrap; line-height: 1.5; max-width: 146px; text-align: center;"><span class="nodeLabel markdown-node-label" style=""><p>- name: String</p></span></div></foreignObject></g><g class="label" style="" transform="translate(0,12)"><foreignObject width="156.796875" height="24"><div xmlns="http://www.w3.org/1999/xhtml" style="display: table-cell; white-space: nowrap; line-height: 1.5; max-width: 196px; text-align: center;"><span class="nodeLabel markdown-node-label" style=""><p>- contactEmail: String</p></span></div></foreignObject></g><g class="label" style="" transform="translate(0,36)"><foreignObject width="200.5" height="24"><div xmlns="http://www.w3.org/1999/xhtml" style="display: table-cell; white-space: nowrap; line-height: 1.5; max-width: 232px; text-align: center;"><span class="nodeLabel markdown-node-label" style=""><p>- contactPhone: String[0..1]</p></span></div></foreignObject></g></g><g class="methods-group text" transform="translate(-121.890625, 84)"/><g class="divider" style=""><path d="M-133.890625 -36 C-42.86175257722944 -36, 48.16711984554112 -36, 133.890625 -36 M-133.890625 -36 C-29.46688908486358 -36, 74.95684683027284 -36, 133.890625 -36" stroke="#9370DB" stroke-width="1.3" fill="none" stroke-dasharray="0 0" style=""/></g><g class="divider" style=""><path d="M-133.890625 60 C-30.94686235154201 60, 71.99690029691598 60, 133.890625 60 M-133.890625 60 C-41.96393507817875 60, 49.9627548436425 60, 133.890625 60" stroke="#9370DB" stroke-width="1.3" fill="none" stroke-dasharray="0 0" style=""/></g></g><g class="node default" id="classId-VenueInfo-4" transform="translate(1238.9765625, 144)"><g class="basic label-container"><path d="M-104.9140625 -96 L104.9140625 -96 L104.9140625 96 L-104.9140625 96" stroke="none" stroke-width="0" fill="#ECECFF" style=""/><path d="M-104.9140625 -96 C-47.93373818483142 -96, 9.046586130337161 -96, 104.9140625 -96 M-104.9140625 -96 C-35.33569187414297 -96, 34.24267875171407 -96, 104.9140625 -96 M104.9140625 -96 C104.9140625 -42.33809310248698, 104.9140625 11.323813795026041, 104.9140625 96 M104.9140625 -96 C104.9140625 -22.97139696495391, 104.9140625 50.05720607009218, 104.9140625 96 M104.9140625 96 C33.92222513524425 96, -37.069612229511506 96, -104.9140625 96 M104.9140625 96 C36.61550364221863 96, -31.683055215562746 96, -104.9140625 96 M-104.9140625 96 C-104.9140625 19.79395075679895, -104.9140625 -56.4120984864021, -104.9140625 -96 M-104.9140625 96 C-104.9140625 20.30447819147767, -104.9140625 -55.39104361704466, -104.9140625 -96" stroke="#9370DB" stroke-width="1.3" fill="none" stroke-dasharray="0 0" style=""/></g><g class="annotation-group text" transform="translate(0, -72)"/><g class="label-group text" transform="translate(-37.609375, -72)"><g class="label" style="font-weight: bolder" transform="translate(0,-12)"><foreignObject width="75.21875" height="24"><div xmlns="http://www.w3.org/1999/xhtml" style="display: table-cell; white-space: nowrap; line-height: 1.5; max-width: 117px; text-align: center;"><span class="nodeLabel markdown-node-label" style=""><p>VenueInfo</p></span></div></foreignObject></g></g><g class="members-group text" transform="translate(-92.9140625, -24)"><g class="label" style="" transform="translate(0,-12)"><foreignObject width="117.125" height="24"><div xmlns="http://www.w3.org/1999/xhtml" style="display: table-cell; white-space: nowrap; line-height: 1.5; max-width: 159px; text-align: center;"><span class="nodeLabel markdown-node-label" style=""><p>- address: String</p></span></div></foreignObject></g><g class="label" style="" transform="translate(0,12)"><foreignObject width="101.40625" height="24"><div xmlns="http://www.w3.org/1999/xhtml" style="display: table-cell; white-space: nowrap; line-height: 1.5; max-width: 142px; text-align: center;"><span class="nodeLabel markdown-node-label" style=""><p>- capacity: int</p></span></div></foreignObject></g><g class="label" style="" transform="translate(0,36)"><foreignObject width="147.421875" height="24"><div xmlns="http://www.w3.org/1999/xhtml" style="display: table-cell; white-space: nowrap; line-height: 1.5; max-width: 190px; text-align: center;"><span class="nodeLabel markdown-node-label" style=""><p>- isOutdoor: Boolean</p></span></div></foreignObject></g><g class="label" style="" transform="translate(0,60)"><foreignObject width="148.21875" height="24"><div xmlns="http://www.w3.org/1999/xhtml" style="display: table-cell; white-space: nowrap; line-height: 1.5; max-width: 194px; text-align: center;"><span class="nodeLabel markdown-node-label" style=""><p>- isSmoking: Boolean</p></span></div></foreignObject></g></g><g class="methods-group text" transform="translate(-92.9140625, 96)"/><g class="divider" style=""><path d="M-104.9140625 -48 C-37.51211525964571 -48, 29.88983198070858 -48, 104.9140625 -48 M-104.9140625 -48 C-26.93041962462192 -48, 51.05322325075616 -48, 104.9140625 -48" stroke="#9370DB" stroke-width="1.3" fill="none" stroke-dasharray="0 0" style=""/></g><g class="divider" style=""><path d="M-104.9140625 72 C-59.0007129688059 72, -13.087363437611799 72, 104.9140625 72 M-104.9140625 72 C-62.71651618381502 72, -20.518969867630034 72, 104.9140625 72" stroke="#9370DB" stroke-width="1.3" fill="none" stroke-dasharray="0 0" style=""/></g></g></g><g class="edges edgePaths"/><g class="edgeLabels"/></svg>